<svg width="90" height="175" viewBox="0 0 90 175" fill="none" xmlns="http://www.w3.org/2000/svg">
<path d="M5.01544 7.56964C7.1102 4.52272 9.87147 2.71362 13.2992 2.14232L20.5833 1.28537L26.1534 0.856903L9.15734 10.5689L5.01544 7.56964ZM63.859 0.856903L69.4291 1.28537L76.856 2.14232C80.2838 2.71362 82.9974 4.52272 84.997 7.56964L80.8551 10.5689L63.859 0.856903ZM14.7275 59.8433L12.8708 46.8463C12.7756 45.7037 13.1564 45.1324 14.0134 45.1324C24.2967 41.9903 34.6276 40.4192 45.0062 40.4192C55.3848 40.4192 65.7157 41.9903 75.999 45.1324C76.856 45.1324 77.2368 45.7037 77.1416 46.8463L75.2849 59.8433C65.7633 57.5581 55.6704 56.2727 45.0062 55.987C34.342 56.2727 24.2491 57.5581 14.7275 59.8433ZM17.2983 130.398L18.8694 118.401C19.0598 117.639 19.4883 117.259 20.1548 117.259L45.0062 119.687L69.8576 117.259C70.7145 117.259 71.1906 117.639 71.2858 118.401L72.9997 130.398C64.2399 133.064 54.9087 134.302 45.0062 134.112C35.1037 134.302 25.8678 133.064 17.2983 130.398Z" fill="white"/>
<path d="M17.2982 130.398L15.4415 142.396V163.248C34.9608 166.485 54.6705 166.485 74.5707 163.248V142.396L72.9996 130.398L71.2857 118.401C71.1905 117.639 70.7144 117.259 69.8575 117.259L45.0061 119.687L20.1547 117.259C19.4882 117.259 19.0597 117.639 18.8693 118.401L17.2982 130.398ZM26.1533 0.856945L45.0061 0L63.8589 0.856945L80.8549 10.569L84.9968 7.56968C87.7581 11.7592 89.1863 18.6147 89.2816 28.1364L88.4246 42.7044L86.9964 56.5584V56.9868C85.7586 60.129 84.6636 63.3663 83.7114 66.6989C77.9032 85.7421 78.5221 104.833 85.5681 123.971L87.5677 128.97L89.5672 146.109C91.4715 162.581 87.0916 171.484 76.4274 172.817L45.0061 174.674L15.4415 173.103L13.5848 172.817C7.49094 172.055 3.49186 168.866 1.58754 163.248C-0.031133 158.963 -0.411991 153.25 0.444954 146.109L2.30166 128.97L4.44402 123.971C11.49 104.833 12.1565 85.7421 6.44356 66.6989C5.4914 63.3663 4.34881 60.129 3.01578 56.9868V56.5584L1.73036 42.7044C1.15907 37.2771 0.87342 32.4211 0.87342 28.1364C0.87342 18.6147 2.25406 11.7592 5.01532 7.56968L9.15722 10.569L26.1533 0.856945ZM15.1558 8.56945C11.3472 9.90247 9.49047 13.8063 9.58569 20.281L11.7281 41.7046C15.1558 40.2764 18.6788 39.1338 22.297 38.2769C29.7239 36.3725 37.2936 35.3728 45.0061 35.2776C52.909 35.3728 60.4787 36.3725 67.7151 38.2769C71.3333 39.1338 74.8563 40.2764 78.2841 41.7046L80.4265 20.281C80.5217 13.8063 78.665 9.90247 74.8563 8.56945L61.288 5.42732L45.0061 4.57037L28.7241 5.42732L15.1558 8.56945ZM14.7274 59.8433L16.5841 72.8403C16.7745 73.6972 17.2982 74.1257 18.1551 74.1257L45.0061 71.6977L72.1427 74.1257L73.4281 72.8403L75.2848 59.8433L77.1415 46.8463C77.2367 45.7037 76.8559 45.1324 75.9989 45.1324C65.7156 41.9903 55.3846 40.4192 45.0061 40.4192C34.6275 40.4192 24.2966 41.9903 14.0132 45.1324C13.1563 45.1324 12.7754 45.7037 12.8706 46.8463L14.7274 59.8433ZM61.5737 81.5526C56.432 80.2195 50.9095 79.553 45.0061 79.553L28.7241 81.5526C25.4868 82.3143 23.8681 84.2662 23.8681 87.4084V95.835C23.8681 99.0723 25.4868 100.691 28.7241 100.691H61.288C64.5254 100.691 66.1441 99.0723 66.1441 95.835V87.4084C66.1441 84.2662 64.6206 82.3143 61.5737 81.5526Z" fill="#E86A17"/>
<path d="M86.9964 56.9868C85.3777 80.6004 85.5682 104.595 87.5677 128.97L85.5682 123.971C78.5222 104.833 77.9033 85.742 83.7115 66.6988C84.6636 63.3662 85.7586 60.1289 86.9964 56.9868ZM2.3017 128.97C4.39645 104.595 4.63449 80.6004 3.01582 56.9868C4.34884 60.1289 5.49144 63.3662 6.4436 66.6988C12.1566 85.742 11.49 104.833 4.44406 123.971L2.3017 128.97ZM15.1559 8.56939L28.7242 5.42726L45.0061 4.57031L61.2881 5.42726L74.8564 8.56939C78.665 9.90241 80.5217 13.8063 80.4265 20.281L78.2841 41.7046C74.8564 40.2763 71.3334 39.1338 67.7151 38.2768C60.4787 36.3725 52.9091 35.3727 45.0061 35.2775C37.2936 35.3727 29.7239 36.3725 22.2971 38.2768C18.6789 39.1338 15.1559 40.2763 11.7281 41.7046L9.58573 20.281C9.49051 13.8063 11.3472 9.90241 15.1559 8.56939ZM74.5707 142.396V163.248C54.6705 166.485 34.9608 166.485 15.4415 163.248V142.396C25.6296 146.299 35.4845 148.299 45.0061 148.394C54.5277 148.299 64.3826 146.299 74.5707 142.396Z" fill="#D96417"/>
<path d="M75.2848 59.8433L73.4281 72.8402L72.1426 74.1257L45.0061 71.6977L18.1551 74.1257C17.2982 74.1257 16.7745 73.6972 16.5841 72.8402L14.7274 59.8433C24.249 57.5581 34.3419 56.2726 45.0061 55.987C55.6703 56.2726 65.7632 57.5581 75.2848 59.8433ZM61.5737 81.5525C64.6206 82.3142 66.144 84.2662 66.144 87.4083V95.8349C66.144 99.0723 64.5254 100.691 61.288 100.691H28.7241C25.4868 100.691 23.8681 99.0723 23.8681 95.8349V87.4083C23.8681 84.2662 25.4868 82.3142 28.7241 81.5525L45.0061 79.553C50.9095 79.553 56.432 80.2195 61.5737 81.5525ZM17.2982 130.398C25.8676 133.064 35.1036 134.302 45.0061 134.112C54.9085 134.302 64.2397 133.064 72.9996 130.398L74.5707 142.396C64.3825 146.299 54.5277 148.299 45.0061 148.394C35.4845 148.299 25.6296 146.299 15.4415 142.396L17.2982 130.398Z" fill="#EEEEEE"/>
</svg>
