<svg width="100" height="178" viewBox="0 0 100 178" fill="none" xmlns="http://www.w3.org/2000/svg">
<path d="M27.2493 1.28535L32.1337 0.771176H32.3907L50.1285 0L68.1234 0.771176H68.3804L72.7506 1.28535L80.2056 2.31361H80.4626C86.2895 3.17051 91.0025 6.25535 94.6015 11.5681L94.8586 11.8252C98.2862 16.6238 100 24.5929 100 35.7326V40.3598V41.1311L98.9717 57.5835C97.9434 82.7763 97.9434 107.369 98.9717 131.362V131.876V136.761V137.275C97.772 164.01 87.3178 177.378 67.6092 177.378L50.1285 177.892L33.162 177.378H32.9048C13.0248 177.378 2.485 164.267 1.28535 138.046L1.02834 131.876V131.619V131.105L1.28535 125.45C2.14224 105.227 2.14224 84.5757 1.28535 63.4961L1.02834 57.5835L0.257006 41.6452L0 35.7326C0 30.4198 0.428449 25.7926 1.28535 21.8509C2.14224 17.395 3.599 13.9674 5.65555 11.5681C9.25452 6.25535 14.0531 3.17051 20.0514 2.31361L27.2493 1.28535ZM33.162 11.0539L28.0206 11.5681L21.5939 12.3393C18.509 12.8534 16.024 14.4815 14.1388 17.2236C11.5681 20.9939 10.2828 27.1636 10.2828 35.7326L10.5398 40.3598L11.3111 57.0693C12.5108 82.6049 12.5108 107.455 11.3111 131.619V131.876L11.5681 136.761C12.2536 156.469 19.5373 166.581 33.419 167.095L50.1285 167.609L66.838 167.095C80.5484 166.581 87.832 156.469 88.6889 136.761V131.876V131.619C87.6606 107.455 87.6606 82.6049 88.6889 57.0693L89.7172 40.3598V35.7326C89.7172 27.1636 88.5175 20.9939 86.1182 17.2236C84.233 14.4815 81.748 12.8534 78.6631 12.3393L71.9794 11.5681L67.095 11.0539L50.1285 10.2828L33.162 11.0539Z" fill="#3A3535"/>
<path d="M33.162 11.0541C30.5913 16.7096 24.2502 18.7662 14.1388 17.2238C16.024 14.4817 18.5091 12.8536 21.5939 12.3395L28.0206 11.5683L33.162 11.0541ZM67.095 11.0541L71.9794 11.5683L78.6631 12.3395C81.748 12.8536 84.233 14.4817 86.1182 17.2238C75.8354 18.7662 69.4943 16.7096 67.095 11.0541ZM20.8226 70.9513L20.5656 59.6402V59.3832L20.8226 58.6119L21.8509 58.3548H22.1079C31.5338 55.7841 40.874 54.4988 50.1285 54.4988C59.383 54.4988 68.7233 55.7841 78.1491 58.3548H78.4061L79.4345 58.6119L79.6915 59.3832L79.4345 70.9513L76.3496 70.4371L50.1285 67.6093L23.6504 70.4371L20.8226 70.9513ZM23.3933 118.252L23.6504 106.684C23.6504 105.998 24.0789 105.656 24.9358 105.656L50.1285 107.969L75.3213 105.656L76.6066 106.684L76.8638 118.252L73.7789 119.023L50.1285 121.594L26.2211 119.023L23.3933 118.252Z" fill="white"/>
<path d="M33.162 11.0539L50.1285 10.2827L67.095 11.0539C69.4943 16.7094 75.8354 18.766 86.1182 17.2236C88.5175 20.9939 89.7172 27.1636 89.7172 35.7326V40.3598L88.6889 57.0693C87.6606 82.6048 87.6606 107.455 88.6889 131.619V131.876V136.761C87.832 156.469 80.5483 166.581 66.838 167.095L50.1285 167.609L33.419 167.095C19.5372 166.581 12.2536 156.469 11.5681 136.761L11.3111 131.876V131.619C12.5107 107.455 12.5107 82.6048 11.3111 57.0693L10.5398 40.3598L10.2827 35.7326C10.2827 27.1636 11.5681 20.9939 14.1388 17.2236C24.2502 18.766 30.5913 16.7094 33.162 11.0539ZM79.4344 70.9511L79.6914 59.383L79.4344 58.6117L78.4061 58.3546H78.1491C68.7232 55.784 59.383 54.4986 50.1285 54.4986C40.874 54.4986 31.5337 55.784 22.1079 58.3546H21.8509L20.8225 58.6117L20.5655 59.383V59.64L20.8225 70.9511L21.0797 83.5475L22.622 84.8328L50.1285 82.2621L77.6349 84.8328L78.9203 83.5475L79.4344 70.9511ZM76.8637 118.252L76.6066 106.684L75.3212 105.655L50.1285 107.969L24.9357 105.655C24.0788 105.655 23.6504 105.998 23.6504 106.684L23.3932 118.252L22.8792 128.792L24.6786 129.306L30.8483 131.105L50.1285 133.676L69.4087 131.105L75.3212 129.306L77.1207 128.792L76.8637 118.252Z" fill="#5D5B5B"/>
<path d="M76.8635 118.252L77.1205 128.792L75.3209 129.306L69.4084 131.105L50.1282 133.676L30.848 131.105L24.6783 129.306L22.8789 128.792L23.3929 118.252L26.2208 119.023L50.1282 121.594L73.7786 119.023L76.8635 118.252ZM79.4342 70.9513L78.92 83.5477L77.6346 84.833L50.1282 82.2623L22.6218 84.833L21.0794 83.5477L20.8222 70.9513L23.6501 70.4371L50.1282 67.6093L76.3493 70.4371L79.4342 70.9513Z" fill="#EEEEEE"/>
</svg>
