<svg width="250" height="250" viewBox="0 0 250 250" fill="none" xmlns="http://www.w3.org/2000/svg">
  <rect y="145" width="250" height="64" fill="hsl(210 0% 80%)"/>
  <rect y="209" width="250" height="19" fill="hsl(210 0% 50%)"/>
  <path fill-rule="evenodd" clip-rule="evenodd" d="M50 79C47.2386 79 45 81.2386 45 84V93H34.375L25 100.5V108H34.375V110H0V138H250V110H215.625V108H225V100.5L215.625 93H205V84C205 81.2386 202.761 79 200 79H175C172.239 79 170 81.2386 170 84V93H159.375L150 100.5V108H159.375V110H90.625V108H100V100.5L90.625 93H80V84C80 81.2386 77.7614 79 75 79H50ZM81.3449 110L80.6042 108H44.493L43.777 110H81.3449ZM168.777 110H206.345L205.604 108H169.493L168.777 110Z" fill="hsl(210 20% 20% / 0.25)"/>
</svg>
