<svg width="250" height="250" viewBox="0 0 250 250" fill="none" xmlns="http://www.w3.org/2000/svg">
  <path d="M50 175L84.5 155L70 195.5H50V175Z" fill="#AF7128"/>
  <path d="M200 175L165.5 155L180.5 195.5H200V175Z" fill="#AF7128"/>
  <rect x="25" y="156" width="200" height="20" fill="#DAAB06"/>
  <path d="M50 136H200L225 156H25L50 136Z" fill="#C7A325"/>
  <rect x="50" y="176" width="20" height="20" fill="#C7A325"/>
  <rect x="180" y="176" width="20" height="20" fill="#C7A325"/>
  <ellipse cx="75" cy="146" rx="22" ry="7" fill="#515151"/>
  <rect x="53" y="104" width="44" height="42" fill="#515151"/>
  <ellipse cx="75" cy="105" rx="22" ry="7" fill="white"/>
  <path d="M86.5 105C86.5 105.333 86.2977 105.731 85.7475 106.164C85.2029 106.593 84.3838 107.002 83.3272 107.354C81.2191 108.057 78.2749 108.5 75 108.5C71.7251 108.5 68.7809 108.057 66.6728 107.354C65.6162 107.002 64.7971 106.593 64.2525 106.164C63.7023 105.731 63.5 105.333 63.5 105C63.5 104.667 63.7023 104.269 64.2525 103.836C64.7971 103.407 65.6162 102.998 66.6728 102.646C68.7809 101.943 71.7251 101.5 75 101.5C78.2749 101.5 81.2191 101.943 83.3272 102.646C84.3838 102.998 85.2029 103.407 85.7475 103.836C86.2977 104.269 86.5 104.667 86.5 105Z" fill="#C1FFBF" stroke="#04A800"/>
  <ellipse cx="125" cy="145" rx="22" ry="7" fill="#515151"/>
  <rect x="103" y="103" width="44" height="42" fill="#515151"/>
  <ellipse cx="125" cy="104" rx="22" ry="7" fill="white"/>
  <path d="M136.5 104C136.5 104.333 136.298 104.731 135.747 105.164C135.203 105.593 134.384 106.002 133.327 106.354C131.219 107.057 128.275 107.5 125 107.5C121.725 107.5 118.781 107.057 116.673 106.354C115.616 106.002 114.797 105.593 114.253 105.164C113.702 104.731 113.5 104.333 113.5 104C113.5 103.667 113.702 103.269 114.253 102.836C114.797 102.407 115.616 101.998 116.673 101.646C118.781 100.943 121.725 100.5 125 100.5C128.275 100.5 131.219 100.943 133.327 101.646C134.384 101.998 135.203 102.407 135.747 102.836C136.298 103.269 136.5 103.667 136.5 104Z" fill="#C1FFBF" stroke="#04A800"/>
  <ellipse cx="175" cy="146" rx="22" ry="7" fill="#515151"/>
  <rect x="153" y="104" width="44" height="42" fill="#515151"/>
  <ellipse cx="175" cy="105" rx="22" ry="7" fill="white"/>
  <path d="M186.5 105C186.5 105.333 186.298 105.731 185.747 106.164C185.203 106.593 184.384 107.002 183.327 107.354C181.219 108.057 178.275 108.5 175 108.5C171.725 108.5 168.781 108.057 166.673 107.354C165.616 107.002 164.797 106.593 164.253 106.164C163.702 105.731 163.5 105.333 163.5 105C163.5 104.667 163.702 104.269 164.253 103.836C164.797 103.407 165.616 102.998 166.673 102.646C168.781 101.943 171.725 101.5 175 101.5C178.275 101.5 181.219 101.943 183.327 102.646C184.384 102.998 185.203 103.407 185.747 103.836C186.298 104.269 186.5 104.667 186.5 105Z" fill="#C1FFBF" stroke="#04A800"/>
</svg>
