<svg width="150" height="150" viewBox="0 0 150 150" fill="none" xmlns="http://www.w3.org/2000/svg">
  <ellipse cx="29.8611" cy="93.9584" rx="19.8611" ry="6.31944" fill="#515151"/>
  <rect x="10" y="56.0416" width="39.7222" height="37.9167" fill="#515151"/>
  <ellipse cx="29.8611" cy="56.9444" rx="19.8611" ry="6.31944" fill="white"/>
  <path d="M40.1945 56.9445C40.1945 57.2242 40.0249 57.5703 39.5337 57.9574C39.0481 58.3401 38.3145 58.7065 37.3634 59.0236C35.4664 59.6559 32.8139 60.0556 29.8612 60.0556C26.9084 60.0556 24.2559 59.6559 22.359 59.0236C21.4078 58.7065 20.6742 58.3401 20.1887 57.9574C19.6974 57.5703 19.5278 57.2242 19.5278 56.9445C19.5278 56.6648 19.6974 56.3187 20.1887 55.9316C20.6742 55.5489 21.4078 55.1824 22.359 54.8654C24.2559 54.2331 26.9084 53.8334 29.8612 53.8334C32.8139 53.8334 35.4664 54.2331 37.3634 54.8654C38.3145 55.1824 39.0481 55.5489 39.5337 55.9316C40.0249 56.3187 40.1945 56.6648 40.1945 56.9445Z" fill="#C1FFBF" stroke="#04A800"/>
  <ellipse cx="75" cy="93.0555" rx="19.8611" ry="6.31944" fill="#515151"/>
  <rect x="55.1389" y="55.1389" width="39.7222" height="37.9167" fill="#515151"/>
  <ellipse cx="75" cy="56.0416" rx="19.8611" ry="6.31944" fill="white"/>
  <path d="M85.3334 56.0417C85.3334 56.3214 85.1638 56.6674 84.6726 57.0546C84.187 57.4372 83.4534 57.8037 82.5023 58.1208C80.6053 58.7531 77.9528 59.1528 75.0001 59.1528C72.0473 59.1528 69.3949 58.7531 67.4979 58.1208C66.5468 57.8037 65.8131 57.4372 65.3276 57.0546C64.8364 56.6674 64.6667 56.3214 64.6667 56.0417C64.6667 55.7619 64.8364 55.4159 65.3276 55.0288C65.8131 54.6461 66.5468 54.2796 67.4979 53.9626C69.3949 53.3302 72.0473 52.9305 75.0001 52.9305C77.9528 52.9305 80.6053 53.3302 82.5023 53.9626C83.4534 54.2796 84.187 54.6461 84.6726 55.0288C85.1638 55.4159 85.3334 55.7619 85.3334 56.0417Z" fill="#C1FFBF" stroke="#04A800"/>
  <ellipse cx="120.139" cy="93.9584" rx="19.8611" ry="6.31944" fill="#515151"/>
  <rect x="100.278" y="56.0416" width="39.7222" height="37.9167" fill="#515151"/>
  <ellipse cx="120.139" cy="56.9444" rx="19.8611" ry="6.31944" fill="white"/>
  <path d="M130.472 56.9445C130.472 57.2242 130.303 57.5703 129.812 57.9574C129.326 58.3401 128.592 58.7065 127.641 59.0236C125.744 59.6559 123.092 60.0556 120.139 60.0556C117.186 60.0556 114.534 59.6559 112.637 59.0236C111.686 58.7065 110.952 58.3401 110.466 57.9574C109.975 57.5703 109.806 57.2242 109.806 56.9445C109.806 56.6648 109.975 56.3187 110.466 55.9316C110.952 55.5489 111.686 55.1824 112.637 54.8654C114.534 54.2331 117.186 53.8334 120.139 53.8334C123.092 53.8334 125.744 54.2331 127.641 54.8654C128.592 55.1824 129.326 55.5489 129.812 55.9316C130.303 56.3187 130.472 56.6648 130.472 56.9445Z" fill="#C1FFBF" stroke="#04A800"/>
</svg>
