<svg width="250" height="250" viewBox="0 0 250 250" fill="none" xmlns="http://www.w3.org/2000/svg">
  <path d="M50 175L84.5 155L70 195.5H50V175Z" fill="#AF7128"/>
  <path d="M200 175L165.5 155L180.5 195.5H200V175Z" fill="#AF7128"/>
  <rect x="25" y="156" width="200" height="20" fill="#DAAB06"/>
  <path d="M50 136H200L225 156H25L50 136Z" fill="#C7A325"/>
  <rect x="50" y="176" width="20" height="20" fill="#C7A325"/>
  <rect x="180" y="176" width="20" height="20" fill="#C7A325"/>
  <rect x="78" y="114" width="94" height="38" rx="10" fill="white"/>
  <path d="M78 105H172L182 125H68L78 105Z" fill="#FFE81C"/>
  <rect x="68" y="125" width="114" height="8" fill="#DFC900"/>
  <path d="M114 124.5H136L133 152H117L114 124.5Z" fill="#565656"/>
  <path d="M117 105H132.5L136 125H114L117 105Z" fill="#8B8989"/>
  <path d="M165.215 109.569L145.037 107.432C143.669 107.287 142.352 107.993 141.715 109.211C140.65 111.247 141.904 113.727 144.175 114.075L148.775 114.782C150.047 114.977 150.852 116.253 150.481 117.486C150.094 118.769 150.981 120.084 152.316 120.206L164.062 121.277C168.005 121.636 171.17 118.075 170.35 114.201C169.823 111.707 167.75 109.837 165.215 109.569Z" fill="#E6CF02"/>
</svg>
