<svg width="250" height="250" viewBox="0 0 250 250" fill="none" xmlns="http://www.w3.org/2000/svg">
  <path d="M50 175L84.5 155L70 195.5H50V175Z" fill="#AF7128"/>
  <path d="M200 175L165.5 155L180.5 195.5H200V175Z" fill="#AF7128"/>
  <rect x="25" y="156" width="200" height="20" fill="#DAAB06"/>
  <path d="M50 136H200L225 156H25L50 136Z" fill="#C7A325"/>
  <rect x="50" y="176" width="20" height="20" fill="#C7A325"/>
  <rect x="180" y="176" width="20" height="20" fill="#C7A325"/>
  <rect x="78" y="114" width="94" height="38" rx="10" fill="white"/>
  <path d="M78 105H172L182 125H68L78 105Z" fill="#FEAF2A"/>
  <rect x="68" y="125" width="114" height="8" fill="#F49900"/>
  <path d="M114 124.5H136L133 152H117L114 124.5Z" fill="#565656"/>
  <path d="M117 105H132.5L136 125H114L117 105Z" fill="#8B8989"/>
  <path d="M90.4667 105.679C90.5658 105.422 90.4372 105.132 90.1795 105.033C89.9218 104.934 89.6325 105.063 89.5333 105.321L90.4667 105.679ZM82.5 125L82.0333 124.821L82 124.907V125H82.5ZM100.481 105.636C100.556 105.37 100.402 105.094 100.136 105.019C99.87 104.944 99.5937 105.098 99.5188 105.364L100.481 105.636ZM94.5 125L94.0188 124.864L94 124.931V125H94.5ZM108.492 105.588C108.541 105.317 108.36 105.057 108.088 105.008C107.817 104.959 107.557 105.14 107.508 105.412L108.492 105.588ZM104.5 125L104.008 124.912L104 124.955V125H104.5ZM143.999 105.474C143.985 105.199 143.75 104.987 143.474 105.001C143.199 105.015 142.987 105.25 143.001 105.526L143.999 105.474ZM144.5 125H145V124.987L144.999 124.974L144.5 125ZM153.478 105.353C153.397 105.089 153.117 104.941 152.853 105.022C152.589 105.103 152.441 105.383 152.522 105.647L153.478 105.353ZM159 125H159.5V124.925L159.478 124.853L159 125ZM161.935 105.254C161.8 105.014 161.495 104.929 161.254 105.065C161.014 105.2 160.929 105.505 161.065 105.746L161.935 105.254ZM172.5 125H173C173 124.914 172.978 124.829 172.935 124.754L172.5 125ZM82 132.5C82 132.776 82.2239 133 82.5 133C82.7761 133 83 132.776 83 132.5H82ZM94 132.5C94 132.776 94.2239 133 94.5 133C94.7761 133 95 132.776 95 132.5H94ZM104 132.5C104 132.776 104.224 133 104.5 133C104.776 133 105 132.776 105 132.5H104ZM144 132.5C144 132.776 144.224 133 144.5 133C144.776 133 145 132.776 145 132.5H144ZM158.5 132.5C158.5 132.776 158.724 133 159 133C159.276 133 159.5 132.776 159.5 132.5H158.5ZM172 132.5C172 132.776 172.224 133 172.5 133C172.776 133 173 132.776 173 132.5H172ZM89.5333 105.321L82.0333 124.821L82.9667 125.179L90.4667 105.679L89.5333 105.321ZM99.5188 105.364L94.0188 124.864L94.9812 125.136L100.481 105.636L99.5188 105.364ZM107.508 105.412L104.008 124.912L104.992 125.088L108.492 105.588L107.508 105.412ZM143.001 105.526L144.001 125.026L144.999 124.974L143.999 105.474L143.001 105.526ZM152.522 105.647L158.522 125.147L159.478 124.853L153.478 105.353L152.522 105.647ZM161.065 105.746L172.065 125.246L172.935 124.754L161.935 105.254L161.065 105.746ZM82 125V132.5H83V125H82ZM94 125V132.5H95V125H94ZM104 125V132.5H105V125H104ZM144 125V132.5H145V125H144ZM158.5 125V132.5H159.5V125H158.5ZM172 125V132.5H173V125H172Z" fill="#FFE8C1"/>
</svg>
