<svg
  class="deck__logo"
  viewBox="0 0 742 541"
  fill="none"
  xmlns="http://www.w3.org/2000/svg"
>
  <path
    d="M435 470c0 25.405-30.534 54-64.5 54S306 495.405 306 470s30.534-38 64.5-38 64.5 12.595 64.5 38Z"
    fill="var(--base-coat)"
  />
  <path fill="var(--base-coat)" d="M232.806 260h273.448v41H232.806z" />
  <path
    fill-rule="evenodd"
    clip-rule="evenodd"
    d="M579.304 132.562C634.814 177.102 666 247.511 666 310.5H475.244V273c0-21.539-17.46-39-39-39H302.816c-21.539 0-39 17.461-39 39v37.5H74c0-62.989 31.186-133.398 86.696-177.938C216.207 88.022 291.496 63 370 63c78.504 0 153.793 25.022 209.304 69.562Z"
    fill="var(--base-coat)"
  />
  <circle cx="114" cy="158" r="104" stroke="var(--base-coat)" stroke-width="20" />
  <circle cx="628" cy="158" r="104" stroke="var(--base-coat)" stroke-width="20" />
  <circle
    class="deck__logo-eye deck__logo-eye--right"
    cx="539"
    cy="371"
    r="25"
    fill="var(--base-coat)"
  />
  <circle
    class="deck__logo-eye deck__logo-eye--left"
    cx="203"
    cy="371"
    r="25"
    fill="var(--base-coat)"
  />
  <path
    d="M435 470c0 25.405-30.534 54-64.5 54S306 495.405 306 470s30.534-38 64.5-38 64.5 12.595 64.5 38Z"
    fill="var(--base-coat)"
  />
  <path fill="var(--r-link-color)" d="M232.806 260h273.448v41H232.806z" />
  <path
    fill-rule="evenodd"
    clip-rule="evenodd"
    d="M579.304 132.562C634.814 177.102 666 247.511 666 310.5H475.244V273c0-21.539-17.46-39-39-39H302.816c-21.539 0-39 17.461-39 39v37.5H74c0-62.989 31.186-133.398 86.696-177.938C216.207 88.022 291.496 63 370 63c78.504 0 153.793 25.022 209.304 69.562Z"
    fill="var(--base-coat)"
  />
</svg>